<svg width="1920" height="1080" viewBox="0 0 1920 1080" fill="none" xmlns="http://www.w3.org/2000/svg">
<g clip-path="url(#clip0_2_2)">
<rect width="1920" height="1080" fill="url(#paint0_linear_2_2)"/>
<path d="M-174.846 1322.7C670.001 1583.61 2078.18 1491.74 2534.84 574.793M-177.768 1281.15C667.078 1542.06 2075.26 1450.19 2531.91 533.24M-180.69 1239.59C664.156 1500.5 2072.33 1408.64 2528.99 491.686M-183.612 1198.04C661.235 1458.95 2069.41 1367.08 2526.07 450.132M-186.535 1156.49C658.312 1417.4 2066.49 1325.53 2523.15 408.579M-189.457 1114.93C655.39 1375.84 2063.57 1283.98 2520.23 367.025M-192.378 1073.38C652.469 1334.29 2060.65 1242.42 2517.3 325.472M-195.301 1031.83C649.546 1292.74 2057.72 1200.87 2514.38 283.918M-198.223 990.273C646.623 1251.18 2054.8 1159.31 2511.46 242.364M-201.146 948.719C643.701 1209.63 2051.88 1117.76 2508.54 200.811M-204.067 907.166C640.78 1168.08 2048.96 1076.21 2505.62 159.257M-206.989 865.612C637.858 1126.52 2046.03 1034.65 2502.69 117.703M-209.912 824.058C634.935 1084.97 2043.11 993.1 2499.77 76.1498M-212.834 782.505C632.013 1043.41 2040.19 951.547 2496.85 34.5962M-215.757 740.951C629.09 1001.86 2037.27 909.993 2493.93 -6.9574M-218.679 699.397C626.168 960.307 2034.35 868.44 2491 -48.511M-221.6 657.844C623.247 918.754 2031.42 826.886 2488.08 -90.0647M-224.523 616.29C620.324 877.2 2028.5 785.332 2485.16 -131.618M-227.444 574.736C617.402 835.646 2025.58 743.779 2482.24 -173.172M-230.367 533.183C614.48 794.093 2022.66 702.225 2479.32 -214.725M-233.289 491.629C611.557 752.539 2019.73 660.672 2476.39 -256.279M-236.211 450.075C608.635 710.985 2016.81 619.118 2473.47 -297.833M-239.134 408.522C605.713 669.432 2013.89 577.564 2470.55 -339.386M-242.056 366.968C602.791 627.878 2010.97 536.011 2467.63 -380.94M-244.978 325.415C599.869 586.325 2008.05 494.457 2464.7 -422.494M-247.899 283.861C596.947 544.771 2005.12 452.903 2461.78 -464.047M-250.823 242.307C594.024 503.218 2002.2 411.35 2458.86 -505.601M-253.745 200.754C591.102 461.664 1999.28 369.796 2455.94 -547.154M-256.667 159.2C588.18 420.11 1996.36 328.243 2453.02 -588.708M-259.589 117.647C585.258 378.557 1993.43 286.689 2450.09 -630.262M-262.511 76.093C582.336 337.003 1990.51 245.135 2447.17 -671.815M-265.434 34.5394C579.413 295.449 1987.59 203.582 2444.25 -713.369M-268.355 -7.01428C576.492 253.896 1984.67 162.028 2441.33 -754.923M-271.278 -48.5679C573.569 212.342 1981.75 120.474 2438.4 -796.476M-274.2 -90.1215C570.646 170.789 1978.82 78.9208 2435.48 -838.03M-277.122 -131.675C567.724 129.235 1975.9 37.3671 2432.56 -879.583M-280.044 -173.229C564.803 87.6813 1972.98 -4.18646 2429.64 -921.137M-282.966 -214.782C561.88 46.1277 1970.06 -45.7401 2426.72 -962.691M-285.889 -256.336C558.958 4.5741 1967.14 -87.2937 2423.79 -1004.24M-288.811 -297.89C556.036 -36.9796 1964.21 -128.847 2420.87 -1045.8M-291.733 -339.443C553.113 -78.5332 1961.29 -170.401 2417.95 -1087.35M-294.655 -380.997C550.192 -120.087 1958.37 -211.955 2415.03 -1128.91M-297.577 -422.55C547.269 -161.64 1955.45 -253.508 2412.11 -1170.46M-300.499 -464.104C544.348 -203.194 1952.52 -295.062 2409.18 -1212.01M-303.422 -505.657C541.425 -244.747 1949.6 -336.615 2406.26 -1253.57M-306.344 -547.211C538.503 -286.301 1946.68 -378.169 2403.34 -1295.12M-309.266 -588.765C535.581 -327.855 1943.76 -419.723 2400.42 -1336.67M-312.188 -630.318C532.659 -369.408 1940.84 -461.276 2397.49 -1378.23" stroke="white" stroke-opacity="0.14"/>
</g>
<defs>
<linearGradient id="paint0_linear_2_2" x1="0" y1="0" x2="1922.54" y2="4.53193" gradientUnits="userSpaceOnUse">
<stop stop-color="#671DFD"/>
<stop offset="0.5" stop-color="#E045D0"/>
<stop offset="1" stop-color="#E87B3E"/>
</linearGradient>
<clipPath id="clip0_2_2">
<rect width="1920" height="1080" fill="white"/>
</clipPath>
</defs>
</svg>
