<svg width="22" height="22" viewBox="0 0 22 22" fill="none" xmlns="http://www.w3.org/2000/svg">
<path fill-rule="evenodd" clip-rule="evenodd" d="M11.0517 4.5468C13.0894 4.5468 14.4639 5.40022 15.2476 6.11335L18.3101 3.21407C16.4292 1.51892 13.9816 0.478455 11.0517 0.478455C6.80761 0.478455 3.14224 2.83997 1.35779 6.27702L4.86641 8.9191C5.74658 6.38223 8.18212 4.5468 11.0517 4.5468Z" fill="#EA4335"/>
<path fill-rule="evenodd" clip-rule="evenodd" d="M21.4692 11.2338C21.4692 10.3687 21.3968 9.73744 21.2401 9.08276H11.0518V12.9874H17.0322C16.9116 13.9578 16.2605 15.4191 14.8136 16.4011L18.2379 18.9731C20.2876 17.1376 21.4692 14.4371 21.4692 11.2338Z" fill="#4285F4"/>
<path fill-rule="evenodd" clip-rule="evenodd" d="M4.87848 13.081C4.6494 12.4263 4.51677 11.7249 4.51677 11.0001C4.51677 10.2752 4.6494 9.5738 4.86643 8.91912L1.3578 6.27704C0.622317 7.7033 0.200317 9.30492 0.200317 11.0001C0.200317 12.6952 0.622317 14.2968 1.3578 15.7231L4.87848 13.081Z" fill="#FBBC05"/>
<path fill-rule="evenodd" clip-rule="evenodd" d="M11.0518 21.5216C13.9816 21.5216 16.4413 20.5864 18.2378 18.9731L14.8136 16.4011C13.8972 17.0207 12.6674 17.4533 11.0518 17.4533C8.18215 17.4533 5.74661 15.6179 4.8785 13.081L1.36987 15.7231C3.15433 19.1601 6.80764 21.5216 11.0518 21.5216Z" fill="#34A853"/>
</svg>
